<?xml version="1.0" encoding="UTF-8" standalone="yes"?>
<!DOCTYPE svg PUBLIC "-//W3C//DTD SVG 1.1//EN" "http://www.w3.org/Graphics/SVG/1.1/DTD/svg11.dtd">

<svg width="800" height="620" viewBox="0 0 800 620" xmlns="http://www.w3.org/2000/svg" xmlns:xlink="http://www.w3.org/1999/xlink" version="1.1" baseProfile="full">
    <g transform="scale(1,-1) translate(0,-620)">
        <path d="M 5.069904 484.428502 C 105.840290 496.926912 206.795333 508.180013 307.519836 520.955128 C 261.077746 358.062004 218.112398 191.631934 183.259379 24.126888 C 159.369656 22.051467 143.952611 20.024090 115.880204 14.950148 L 49.843558 4.429386 C 40.001709 55.613258 31.244828 126.500894 24.711046 186.832387 C 21.398228 213.809139 20.756593 228.535416 18.659025 254.774103 C 17.752689 268.563705 14.154597 293.866665 13.370367 308.348168 C 9.957590 370.193920 3.316411 422.490422 1.932891 484.428502 Z" transform="scale(0.240000,0.240000) translate(1820.833261,458.333315)" fill="#79b6df" opacity="1.000000"></path>
        <path d="M 134.262943 492.726356 L 277.132965 477.092539 C 301.231081 475.960464 339.946689 473.028495 357.840969 472.698343 C 362.682491 401.817456 355.716381 328.975068 360.328303 257.764029 C 368.952575 172.027720 377.738329 87.403497 387.285700 1.478653 C 339.736794 1.195707 282.668916 4.739527 235.396715 8.512534 C 201.360707 12.332459 171.768070 15.667563 137.409475 18.651698 C 102.565502 183.400214 50.860968 347.174738 4.234503 508.413780 L 55.096279 504.443198 Z" transform="scale(0.240000,0.240000) translate(1283.333282,462.499982)" fill="#79b6df" opacity="1.000000"></path>
        <path d="M 419.248580 1336.345972 C 590.212567 1412.765555 784.328212 1431.443853 968.205524 1400.405637 C 1049.467570 1385.831946 1129.299931 1360.835336 1202.076197 1321.449482 C 1267.150350 1286.629456 1325.675653 1238.942198 1370.826551 1180.416895 C 1405.692671 1184.290892 1440.282087 1191.623831 1475.471076 1191.623831 C 1499.960371 1191.669996 1527.124378 1193.653088 1548.247060 1178.987210 C 1573.981665 1152.053601 1594.596821 1116.634073 1594.458610 1078.401199 C 1594.873525 1059.584619 1585.465305 1040.767898 1568.954545 1031.267350 C 1537.409156 1011.989549 1504.412528 992.896124 1474.480917 971.266198 C 1468.234146 928.637499 1470.488470 883.392792 1465.428866 848.244961 C 1462.022276 742.436932 1469.430303 765.721619 1457.482866 682.382643 C 1452.603953 616.813573 1446.353397 582.496084 1426.774041 496.964578 C 1415.743287 447.551205 1399.282031 415.345206 1391.395543 388.734325 C 1353.116645 281.045915 1316.175104 172.758074 1273.699481 66.683865 C 1161.367167 56.951837 1091.557184 46.024959 966.722982 30.050089 C 940.555662 26.549084 916.086073 22.852182 898.944839 17.841265 C 880.559235 31.693892 852.229891 31.314348 830.738458 26.425722 C 818.470588 42.198417 808.731807 57.848821 787.562960 54.943288 C 753.019709 49.870286 721.869186 37.464204 688.248375 28.378571 C 677.641010 26.902722 678.780291 9.410942 673.891665 1.293914 C 583.570384 3.982607 489.460944 18.127542 397.822074 31.179361 C 383.848096 33.439158 356.546317 32.905517 343.125466 37.471274 C 333.624918 48.908892 333.282282 75.584842 327.794084 89.005552 C 294.637667 199.153373 251.785792 285.338200 228.804868 362.104617 C 200.474140 456.741791 171.518206 522.644261 155.406573 577.063411 C 130.601523 747.704380 128.596126 759.918874 125.791952 770.048155 C 117.444384 834.107680 127.682716 899.043482 132.340802 963.010960 C 110.941416 981.689189 86.083370 996.170692 62.378023 1011.758870 C 41.716702 1025.225745 13.260939 1034.956833 6.389221 1061.475385 C -3.157492 1100.031127 17.734650 1137.941133 40.056196 1167.964791 C 53.292390 1187.980516 79.349863 1191.301106 101.394985 1191.485481 C 140.411667 1193.007494 179.151925 1187.288615 217.569315 1181.339337 C 268.300459 1251.071577 341.814227 1300.603575 419.248580 1336.345972 Z" transform="scale(0.240000,0.240000) translate(904.166631,1058.333291)" fill="#79b6df" opacity="1.000000"></path>
        <path d="M 33.202723 97.896622 C 51.788904 106.520894 79.045240 97.573754 81.996938 75.574936 C 84.395227 58.695284 64.932769 53.299414 57.922558 40.893332 C 50.866463 29.409550 62.903512 13.498503 51.512200 3.951791 C 27.391656 11.284730 7.099367 32.315084 3.087018 57.496139 C 0.596400 76.635729 16.092390 92.408423 33.202723 97.896622 Z" transform="scale(0.240000,0.240000) translate(995.833294,2099.999917)" fill="#2f73b0" opacity="1.000000"></path>
        <path d="M 18.987321 96.605289 C 40.524919 107.397170 70.502413 96.374750 80.648698 74.698659 C 90.841147 43.614349 63.630694 13.267823 35.498081 4.182331 C 21.708479 13.037283 37.020095 32.176732 26.781481 43.337645 C 20.509334 50.624420 12.530799 56.158783 6.443028 63.537746 C 0.493469 75.713288 7.042601 90.932575 18.987321 96.605289 Z" transform="scale(0.240000,0.240000) translate(2324.999908,2099.999917)" fill="#2f73b0" opacity="1.000000"></path>
        <path d="M 193.395607 471.138329 C 250.906140 480.961746 310.676753 467.679388 359.701507 436.364397 C 407.066038 411.506210 432.062577 359.437570 443.684711 309.444351 C 464.253703 228.459009 439.487704 139.817860 386.681139 76.219415 C 354.259473 40.061962 310.077180 13.912302 262.251570 4.734622 C 208.476682 -2.321613 149.905215 1.644572 104.431730 34.158708 C 43.415809 71.699680 10.440735 142.815582 4.583503 212.363305 C 2.369871 273.471274 25.383317 334.071998 62.924431 381.805420 C 94.746525 424.696240 139.851258 461.084373 193.395607 471.138329 M 206.770012 319.590495 C 166.877054 310.689519 136.253824 272.087753 137.591180 231.087698 C 136.669021 191.148435 166.830890 154.114706 205.109788 144.383618 C 250.998469 130.732368 303.528330 161.724490 315.196346 207.797547 C 325.019763 243.724460 310.815245 285.139431 279.592442 305.893080 C 258.792629 321.020179 231.582176 324.848154 206.770012 319.590495 Z" transform="scale(0.240000,0.240000) translate(1183.333286,1654.166601)" fill="#d8d8d8" opacity="1.000000"></path>
        <path d="M 185.413816 471.138329 C 242.739974 481.284473 304.539843 466.065187 348.214611 426.910013 C 395.809681 383.973029 431.183045 326.416190 444.142535 263.371153 C 447.463265 239.527594 446.679317 215.222675 445.295515 191.286928 C 434.872526 132.946001 406.417045 75.250951 357.161751 40.338666 C 267.367762 -24.735628 127.211381 -5.734391 59.969478 83.183462 C 31.467833 117.588362 15.695138 160.340829 4.949280 203.185625 C -3.582663 260.004540 4.303544 319.867199 30.868260 371.105727 C 60.061806 429.031458 124.029144 460.254120 185.413816 471.138329 M 168.626352 302.803171 C 132.007679 275.592859 122.460966 219.373517 148.841307 182.016920 C 167.842404 151.808745 205.429400 137.050679 240.249637 142.077657 C 273.547580 149.548948 303.386863 174.591652 311.688266 208.350956 C 320.727453 240.357706 309.797220 276.838027 284.754517 298.698493 C 254.039240 328.214767 201.371168 329.690616 168.626352 302.803171 Z" transform="scale(0.240000,0.240000) translate(1774.999929,1654.166601)" fill="#d8d8d8" opacity="1.000000"></path>
        <path d="M 18.190083 63.121337 C 40.603957 79.263064 74.686129 56.433993 68.275490 29.638737 C 65.646661 5.011090 32.210225 -6.749255 14.546766 10.084232 C -2.333027 23.182074 -0.349934 52.467808 18.190083 63.121337 Z" transform="scale(0.240000,0.240000) translate(1399.999944,1883.333258)" fill="#d8d8d8" opacity="1.000000"></path>
        <path d="M 23.513394 65.196617 C 44.174715 76.265343 72.261445 57.494786 70.139860 34.204495 C 70.877925 9.023439 39.147878 -6.749255 18.993801 7.501567 C -2.128881 20.276541 0.315291 56.018937 23.513394 65.196617 Z" transform="scale(0.240000,0.240000) translate(1937.499923,1883.333258)" fill="#d8d8d8" opacity="1.000000"></path>
        <path d="M 372.644537 85.254791 C 372.644537 139.990773 286.405784 205.619692 188.530204 201.754849 C 96.451889 201.754849 12.145557 153.517725 4.415870 89.119634 C 4.415870 34.383653 96.451889 3.538325 188.530204 3.538325 C 280.608518 3.538325 372.644537 30.518809 372.644537 85.254791 Z" transform="scale(0.240000,0.240000) translate(1512.499940,1491.666607)" fill="#a77f6e" opacity="1.000000"></path>
        <path d="M 58.925161 2.635577 L 136.640645 2.635577 C 168.627793 -0.489423 190.604039 26.795811 190.604039 56.598969 L 190.604039 57.432305 C 190.604039 87.235463 179.447667 109.950823 136.640645 111.395697 L 58.925161 111.395697 C 7.247002 108.270697 6.003433 90.360463 4.961767 57.432305 L 4.961767 56.598969 C 11.211766 14.295811 19.747002 4.718911 58.925161 2.635577 Z" transform="scale(0.240000,0.240000) translate(1604.166603,1449.999942)" fill="#d8d8d8" opacity="1.000000"></path>
        <path d="M 190.796863 51.815217 C 186.599411 86.987439 156.960582 118.298460 97.962016 119.697611 C 38.963449 119.697611 3.728018 89.785740 3.728018 54.613518 C 3.728018 19.441296 44.560052 2.121782 103.558619 2.121782 C 156.960582 3.520933 190.796863 16.642995 190.796863 51.815217 Z" transform="scale(0.240000,0.240000) translate(1608.333269,1612.499936)" fill="#120f0f" opacity="1.000000"></path>
        <path d="M 73.436684 182.090500 C 98.248847 187.348159 125.459300 183.520185 146.259114 168.393086 C 177.481917 147.639436 191.686435 106.224466 181.863018 70.297553 C 170.195001 24.224496 117.665141 -6.767627 71.776459 6.883623 C 33.497562 16.614712 3.335693 53.648441 4.257852 93.587703 C 2.920496 134.587758 33.543726 173.189524 73.436684 182.090500 M 101.523413 154.788000 C 82.983396 144.134471 81.000304 114.848737 97.880096 101.750895 C 115.543555 84.917408 148.979991 96.677753 151.608820 121.305400 C 158.019459 148.100657 123.937287 170.929727 101.523413 154.788000 Z" transform="scale(0.240000,0.240000) translate(1316.666614,1791.666595)" fill="#120f0f" opacity="1.000000"></path>
        <path d="M 39.459690 165.303177 C 72.204506 192.190621 124.872578 190.714772 155.587855 161.198498 C 180.630559 139.338033 191.560792 102.857712 182.521604 70.850961 C 174.220201 37.091657 144.380918 12.048954 111.082976 4.577662 C 76.262738 -0.449316 38.675742 14.308751 19.674645 44.516925 C -6.705696 81.873522 2.841017 138.092864 39.459690 165.303177 M 56.846726 156.863280 C 33.648623 147.685600 31.204451 111.943204 52.327133 99.168230 C 72.481210 84.917408 104.211257 100.690103 103.473192 125.871158 C 105.594777 149.161449 77.508048 167.932006 56.846726 156.863280 Z" transform="scale(0.240000,0.240000) translate(1904.166591,1791.666595)" fill="#120f0f" opacity="1.000000"></path>
        <path d="M 185.359884 42.779301 C 178.068218 65.939223 141.784950 90.175132 97.339054 92.258466 C 48.726492 88.091799 8.276558 62.814223 3.068224 41.737634 C 7.234912 22.985737 21.127704 30.413726 35.205359 23.869653 C 40.440180 -1.598616 73.050078 2.763684 99.422387 1.633469 C 161.576616 0.591803 190.568217 12.327713 185.359884 42.779301 Z" transform="scale(0.240000,0.240000) translate(1333.333280,416.666650)" fill="#a77f6d" opacity="1.000000"></path>
        <path d="M 1.799520 42.721175 C 9.091186 65.881096 45.374454 90.117006 89.820350 92.200339 C 138.432912 88.033673 178.882846 62.756096 184.091180 41.679508 C 179.924492 22.927610 166.031700 30.355599 151.954045 23.811526 C 146.719224 -1.656743 114.109326 2.705558 87.737017 1.575343 C 25.582788 0.533676 -3.408813 12.269586 1.799520 42.721175 Z" transform="scale(0.240000,0.240000) translate(1912.499924,429.166650)" fill="#a77f6d" opacity="1.000000"></path>
        <path d="M 8.333958 156.011369 C 10.317332 157.118467 3.510924 161.690103 5.540181 162.750755 C 87.770550 148.223370 181.650070 136.779732 264.849326 129.492817 C 300.176525 127.048644 335.826593 126.126204 370.785042 120.407465 C 379.870675 102.052105 381.715275 81.252291 385.128052 61.328754 C 364.651106 59.483872 344.082114 59.299497 323.605168 57.823648 C 343.713081 53.857463 364.236191 52.704482 384.528480 49.660456 C 384.436433 36.885623 384.436433 24.064344 384.482597 11.243347 L 384.528480 3.310695 C 372.814299 3.449188 361.053954 3.264530 349.477984 4.694215 C 323.143807 9.398466 296.394715 10.874315 269.737952 12.211671 C 203.695193 15.947316 138.298171 26.554681 72.808821 35.225117 C 62.570207 35.455938 52.378039 37.069999 43.338571 41.912460 C 34.345266 80.698883 18.310134 109.366416 5.627348 146.999577 Z" transform="scale(0.240000,0.240000) translate(1249.999950,929.166630)" fill="#d8d8d8" opacity="1.000000"></path>
        <path d="M 405.520401 9.528750 L 409.164984 11.959166 L 411.617068 15.588749 L 412.499984 20.042499 L 412.454151 27.896249 L 412.500401 66.313331 L 411.749151 70.383331 L 410.986651 71.638747 L 412.719984 75.072914 L 412.944568 79.862080 L 407.900401 109.989579 L 407.716234 110.871662 L 404.011651 125.649995 L 403.718318 126.629995 L 401.209151 133.811662 L 400.879568 134.646245 L 397.794568 141.637911 L 396.288735 144.124995 L 394.234568 146.118328 L 391.745818 147.532078 L 388.936235 148.281244 L 362.603736 151.769578 L 362.089153 151.825828 L 335.326237 154.127911 L 282.609989 157.411661 L 218.771242 163.616244 L 153.037494 171.272910 L 87.524580 180.276243 L 24.016666 190.576659 L 20.819999 190.637493 L 17.789583 189.823743 L 15.099166 188.209576 L 12.922083 185.867910 L 12.541250 185.319160 L 10.658750 180.634993 L 11.003333 175.598327 L 11.244166 174.802077 L 12.872916 171.602077 L 11.466250 166.917910 L 10.994166 163.303744 L 11.697083 159.726661 L 21.797499 132.570828 L 31.949165 107.580829 L 41.411665 82.380414 L 45.455415 69.557081 L 49.066248 55.723748 L 51.407498 51.237915 L 55.470831 48.222915 L 62.449164 45.167498 L 63.974164 44.626248 L 71.281247 42.608332 L 72.579581 42.330832 L 80.111664 41.177915 L 81.142080 41.067915 L 88.371663 40.632082 L 186.431660 27.304166 L 236.080824 21.561249 L 285.699989 17.594583 L 325.466238 15.112916 L 344.903320 13.112916 L 364.468319 10.180416 L 365.385403 10.080833 L 382.858735 8.905000 L 383.484569 8.880000 L 401.061651 8.672500 Z M 383.617902 20.184583 L 366.144569 21.360833 L 346.323737 24.331666 L 326.395404 26.382082 L 286.404572 28.878332 L 236.982074 32.830832 L 187.732493 38.534165 L 89.475413 51.891665 L 81.822497 52.352915 L 74.290414 53.505831 L 66.983331 55.523748 L 60.004998 58.578748 L 56.322915 72.686664 L 52.102081 86.069580 L 42.532915 111.554996 L 32.272082 136.824161 L 22.293749 163.665827 L 25.000416 172.677910 L 25.366666 173.241660 L 25.115416 174.048743 L 23.586249 176.064993 L 22.065832 178.072493 L 21.825416 178.868327 L 22.206666 179.417076 L 85.714580 169.116660 L 151.497911 160.072911 L 217.462492 152.387078 L 281.515823 146.159161 L 334.622071 142.844578 L 361.118736 140.562495 L 387.451652 137.073745 L 390.536235 130.082495 L 393.045818 122.900829 L 396.750402 108.122496 L 401.794568 77.995414 L 371.032903 76.104164 L 340.271654 74.489997 L 355.420403 71.969581 L 370.664153 70.062497 L 401.194985 66.327081 L 401.149151 27.909999 L 401.194985 19.977083 Z" transform="scale(0.240000,0.240000) translate(1233.333284,912.499964)" fill="#120f0f" opacity="1.000000"></path>
        <path d="M 217.685717 1008.611696 C 341.377502 1031.348439 467.282920 1039.234927 591.897146 1055.145974 C 590.236640 1035.683657 581.474157 1018.020198 575.663090 999.618392 C 566.577457 975.498129 560.812554 950.363097 552.096235 926.150506 C 444.684389 915.589306 337.687739 899.263203 230.276174 888.010102 C 241.713651 750.943629 245.633953 613.001163 265.880359 476.764803 C 276.118691 404.911259 285.342535 332.227321 309.186094 263.279029 C 331.046560 187.412853 365.497765 114.175508 416.090415 53.159868 C 352.492110 56.572645 287.187417 43.013583 232.535971 9.623312 C 226.632857 6.348746 220.867954 2.336396 214.088282 1.506284 C 194.902810 20.645873 182.957808 45.826788 171.381838 70.039379 C 137.899520 147.658107 120.743023 231.087902 106.722882 314.056336 C 93.486688 399.007863 88.690108 484.927995 78.405612 570.248554 C 74.300934 615.537663 67.659755 660.642115 67.798247 706.254093 C 67.844412 761.320454 63.093997 816.248604 63.001668 871.360849 C 61.249115 911.576956 57.098554 952.023322 45.015341 990.579205 C 49.027691 990.440712 57.144719 990.164008 61.203233 990.025796 C 44.461933 1003.261990 22.278599 997.266548 3.369549 1003.769234 C 3.508042 1006.398064 3.692417 1011.609558 3.784746 1014.192223 C 35.883544 1026.782681 69.735176 1034.300136 102.941072 1043.477816 C 123.971425 1049.934620 146.523792 1032.501419 146.569675 1010.687118 C 152.519234 917.157202 151.642958 823.258535 148.230181 729.636572 C 150.213273 579.472399 175.486517 427.786212 237.793630 290.350989 C 241.252571 294.778536 242.958960 299.805373 242.958960 305.432065 C 246.556394 358.007808 241.344900 410.768208 230.968075 462.329464 C 231.244779 419.530973 235.718208 376.640153 232.305431 333.887545 C 193.841877 419.300433 173.088227 511.953791 163.126599 604.837970 C 150.489977 741.719785 157.177321 879.339665 156.070505 1016.544349 C 173.964503 1019.219061 192.273981 1023.969476 209.845393 1016.821053 C 211.828485 1014.745632 215.748507 1010.687118 217.685717 1008.611696 Z" transform="scale(0.240000,0.240000) translate(1583.333270,62.499998)" fill="#d8d8d8" opacity="1.000000"></path>
        <path d="M 228.867491 4.335417 L 233.779991 5.493750 L 235.406658 6.028333 L 240.046658 8.012500 L 240.990824 8.476666 L 249.844157 13.428749 L 270.450406 24.824999 L 291.524572 34.260832 L 313.317905 41.978332 L 335.687904 48.003332 L 358.485820 52.362081 L 381.588319 55.084998 L 404.820818 56.197915 L 428.391234 55.726248 L 431.347067 56.096248 L 433.895400 57.232498 L 435.962067 58.985414 L 437.471233 61.204581 L 438.347900 63.741664 L 438.517067 66.445831 L 437.904150 69.167914 L 436.433733 71.758331 L 418.393734 94.958746 L 401.971651 118.947495 L 386.940402 143.857495 L 373.254986 169.590827 L 360.880403 196.034159 L 349.772903 223.090408 L 339.904570 250.625407 L 331.152904 278.793739 L 322.932904 304.607072 L 315.984155 330.341237 L 309.952905 356.602486 L 304.736238 383.037485 L 295.948322 436.699150 L 288.227072 490.587481 L 281.382906 541.510813 L 275.779156 592.617061 L 271.139573 643.876225 L 267.187490 695.245390 L 260.226240 798.312053 L 253.382074 891.724549 L 324.508738 899.873716 L 404.909151 909.979549 L 485.185815 919.941632 L 565.679562 928.774131 L 568.439978 929.487881 L 570.840812 930.922464 L 572.747061 932.968298 L 574.024561 935.517048 L 580.191228 954.086630 L 585.743728 972.517880 L 591.266644 990.630796 L 597.530394 1008.807045 L 607.203727 1036.172877 L 607.356227 1036.640794 L 611.497060 1050.503293 L 611.773310 1051.688710 L 614.193310 1065.987876 L 613.875393 1070.648292 L 611.606227 1074.482876 L 607.897060 1076.951626 L 603.259977 1077.516209 L 509.703731 1066.739959 L 415.827067 1056.810793 L 368.845403 1051.489127 L 321.891654 1045.570377 L 275.007073 1038.782460 L 233.727074 1031.788711 L 229.530408 1036.182877 L 225.413741 1038.770794 L 218.792075 1040.920794 L 217.478742 1041.250377 L 210.801659 1042.448710 L 209.652075 1042.586627 L 202.932492 1042.997044 L 202.012076 1043.010377 L 195.264159 1042.796627 L 194.379159 1042.729127 L 180.466660 1041.029544 L 166.986244 1038.852460 L 165.847077 1038.451627 L 164.443744 1042.039960 L 163.389577 1044.032877 L 158.989161 1050.462460 L 157.599994 1052.085793 L 151.934161 1057.418710 L 150.253328 1058.693293 L 143.603745 1062.701209 L 141.620828 1063.616209 L 134.269578 1066.069959 L 131.978745 1066.544543 L 124.207079 1067.215793 L 121.692912 1067.113293 L 113.782079 1065.773709 L 112.874996 1065.576209 L 62.632498 1052.142877 L 37.834999 1044.817460 L 37.344165 1044.658293 L 12.978750 1036.061627 L 10.348333 1034.659961 L 8.290000 1032.591211 L 6.920416 1030.014127 L 6.356666 1027.087461 L 5.941666 1016.664545 L 6.384166 1013.307461 L 7.876250 1010.367461 L 10.247083 1008.076212 L 13.324999 1006.664962 L 20.552499 1004.749962 L 21.622916 1004.528712 L 29.054999 1003.414128 L 29.663749 1003.341628 L 44.344582 1002.066212 L 47.914165 1001.611628 L 47.964582 1000.340379 L 52.071665 986.017462 L 55.442498 971.828296 L 60.539998 942.697047 L 63.748331 913.191215 L 65.572081 883.457466 L 66.368747 842.157885 L 68.023747 800.897886 L 69.647081 759.860388 L 70.367081 718.456639 L 71.388747 684.332057 L 71.414997 683.845391 L 74.125831 649.626225 L 81.027080 581.684144 L 87.917080 517.722064 L 94.075413 453.480399 L 100.800413 389.203318 L 104.793329 357.038736 L 109.447496 324.779154 L 120.806662 262.307073 L 127.342078 231.079991 L 134.653745 199.980826 L 142.902495 169.083327 L 152.246661 138.463328 L 162.687077 108.624996 L 162.847910 108.197496 L 174.664160 78.830414 L 174.944993 78.197080 L 183.988743 59.603748 L 193.629576 41.666248 L 194.057076 40.946248 L 205.124992 23.959999 L 205.655409 23.222082 L 211.925409 15.290833 L 212.416242 14.716666 L 219.284575 7.270000 L 221.316658 5.583750 L 223.679158 4.505833 L 226.239991 4.076250 Z M 219.719575 21.452916 L 213.449159 29.384166 L 202.381242 46.370415 L 192.739993 64.307498 L 183.881660 82.539164 L 172.065410 111.906246 L 161.624994 141.744578 L 152.405828 171.980827 L 144.253744 202.541659 L 137.014161 233.352908 L 130.532078 264.341240 L 119.222495 326.556238 L 114.627496 358.455403 L 110.660412 390.427068 L 103.957079 454.513733 L 97.807496 518.669980 L 90.905413 582.748311 L 84.010413 650.629975 L 81.319997 684.629141 L 80.297914 718.753723 L 79.580830 760.032888 L 77.951664 801.289969 L 76.296247 842.555801 L 75.501664 883.860800 L 73.650831 914.032882 L 70.382497 944.092464 L 65.176664 973.840796 L 61.685414 988.536212 L 57.514998 1003.079128 L 73.702914 1002.525795 L 67.187081 1006.649545 L 60.262914 1009.342461 L 53.032915 1010.976211 L 45.599165 1011.922461 L 30.528749 1013.239545 L 23.096666 1014.354545 L 15.869166 1016.269128 L 16.284583 1026.692044 L 40.649998 1035.288711 L 65.447498 1042.614544 L 115.440829 1055.977460 L 123.351662 1057.317043 L 131.123745 1056.645793 L 138.474995 1054.191626 L 145.124161 1050.184127 L 150.789994 1044.850793 L 155.190411 1038.421210 L 158.044161 1031.123711 L 159.069577 1023.187044 L 162.318744 952.980380 L 163.410410 882.696216 L 162.747077 812.394552 L 160.729994 742.136222 L 162.592077 685.784141 L 166.798744 629.474143 L 169.831660 601.392894 L 173.511243 573.391228 L 177.857493 545.492896 L 182.889993 517.720397 L 188.629993 490.096648 L 195.096659 462.645816 L 202.310826 435.389983 L 210.292075 408.352901 L 219.060825 381.557069 L 228.637491 355.026236 L 239.041658 328.782904 L 250.293324 302.850822 L 252.559574 306.283738 L 254.173324 309.941655 L 255.137907 313.824155 L 255.458740 317.931655 L 256.402074 337.653737 L 256.562074 357.376653 L 255.981657 377.084569 L 254.703740 396.760818 L 252.770407 416.389984 L 250.224990 435.954983 L 243.467907 474.829149 L 244.273324 442.716650 L 245.519991 410.591234 L 246.074991 378.474152 L 245.738741 362.425403 L 244.805407 346.387487 L 231.197908 378.742902 L 219.169992 411.694984 L 208.640409 445.161650 L 199.527492 479.060815 L 191.750826 513.309980 L 185.229160 547.827479 L 179.881243 582.530811 L 175.626243 617.337893 L 171.740410 668.700808 L 169.348327 720.119556 L 168.132494 771.580387 L 167.774577 823.069969 L 168.362910 926.080798 L 168.570410 1029.044127 L 182.050826 1031.221211 L 195.578743 1032.866211 L 202.326659 1033.079961 L 209.046242 1032.669544 L 215.723742 1031.471211 L 222.344992 1029.320794 L 230.185408 1021.111628 L 276.666656 1028.986211 L 323.314571 1035.737044 L 370.087903 1041.631627 L 416.945401 1046.938293 L 510.748731 1056.859543 L 604.397060 1067.645793 L 601.977060 1053.346626 L 597.836227 1039.484127 L 588.162894 1012.118295 L 581.873311 993.867879 L 576.240811 975.418713 L 570.677895 956.952463 L 564.596228 938.650381 L 484.102065 929.817881 L 403.685818 919.839548 L 323.269988 909.731632 L 242.775824 900.509966 L 250.317074 797.586220 L 257.274574 694.575807 L 261.233323 643.114142 L 265.883740 591.721227 L 271.506656 540.428313 L 278.379989 489.264565 L 286.112906 435.289983 L 294.931239 381.432069 L 300.204989 354.680820 L 306.299988 328.119154 L 313.399155 301.800822 L 321.685821 275.778739 L 330.480821 247.470824 L 340.497487 219.522075 L 351.777903 192.044159 L 364.363319 165.150410 L 378.295819 138.952495 L 393.616652 113.562912 L 410.367484 89.094580 L 428.590400 65.659581 L 404.684985 66.138331 L 380.764569 64.992498 L 356.974153 62.188331 L 333.457904 57.692498 L 310.361238 51.471665 L 287.828739 43.492082 L 266.005407 33.720415 L 245.035824 22.122916 L 236.140824 17.147916 L 231.500408 15.164166 L 226.587908 14.006249 Z" transform="scale(0.240000,0.240000) translate(1570.833271,49.999998)" fill="#120f0f" opacity="1.000000"></path>
        <path d="M 15.753772 1477.989399 L 58.736300 1078.386210 L 104.405235 547.820632 C 107.461708 474.547487 118.737685 440.697441 110.649035 334.747616 C 96.145248 245.500195 82.853895 174.837803 67.467126 95.160885 L 55.894084 35.232500 C 99.071456 16.359584 168.888702 -0.518213 226.646474 2.168195 C 284.404245 4.854603 327.328726 10.208070 362.252030 18.267294 C 397.175333 26.326518 454.309876 50.835153 463.712304 56.207969 C 473.114732 61.580785 438.191428 277.836629 428.789000 323.505564 C 420.428239 380.632833 311.793198 796.477854 293.152825 829.454879 C 289.095785 869.723570 106.420041 1377.920701 101.047225 1400.755169 L 36.060802 1702.007248 L 36.573434 1652.605918 L 4.336538 1576.043290 Z" transform="scale(0.240000,0.240000) translate(995.833294,145.833328)" fill="#cd110a" opacity="1.000000"></path>
        <path d="M 25.062819 301.003810 C 18.929165 330.520224 10.765973 359.529113 1.588293 388.215274 C 37.238361 313.963299 75.655751 239.296269 89.629728 157.250276 C 94.103439 129.347922 85.847919 101.722553 80.313837 74.604428 C 70.674796 49.884593 64.172110 23.642745 49.828818 1.044496 C 39.313782 88.947720 31.657834 177.404353 30.136102 265.999197 C 29.628577 277.805706 27.691648 289.520169 25.062819 301.003810 Z" transform="scale(0.240000,0.240000) translate(1166.666620,749.999970)" fill="#cd110a" opacity="1.000000"></path>
        <path d="M 110.507636 258.972957 C 127.802344 302.371302 129.739273 349.551175 137.395221 395.116988 C 140.946209 364.355546 146.572901 333.686152 146.203868 302.555677 C 126.142120 219.218211 108.708919 133.436572 67.708864 57.247528 C 54.564998 31.374712 29.752835 14.310544 3.095790 4.487128 C 3.326611 8.176609 3.695362 15.509689 3.880019 19.153006 C 18.960813 77.217230 26.662926 136.757020 34.964329 196.020389 C 42.158916 206.719800 48.938307 217.696197 54.979913 229.087791 C 64.157875 227.427567 73.427602 223.599593 82.974315 224.798738 C 96.994738 231.163213 104.973273 245.321847 110.507636 258.972957 Z" transform="scale(0.240000,0.240000) translate(1158.333287,187.499993)" fill="#cd110a" opacity="1.000000"></path>
        <path d="M 10.170773 1663.798125 C 14.690366 1647.471881 17.134820 1630.684417 19.164077 1613.850929 C 36.919865 1492.972490 52.369973 1371.309961 82.670054 1252.737483 C 116.659897 1132.274099 161.026847 1015.131165 200.689265 896.512663 C 234.725273 794.819555 270.836702 693.541925 293.757819 588.574532 C 334.619382 402.852338 361.368756 211.872766 347.994069 21.446603 C 345.503732 19.832261 343.151607 18.125873 340.891810 16.280991 C 321.383188 12.038102 301.874847 7.656720 282.135686 4.982007 C 295.556537 110.456644 296.432813 217.868209 283.703863 323.389010 C 284.072896 354.519484 278.446204 385.188879 274.895216 415.950321 C 263.088425 497.396742 251.113364 579.331702 230.313831 658.979406 C 209.724298 743.904098 202.262491 781.561873 170.896146 884.337121 C 146.406851 951.071639 113.339448 1028.644203 90.648870 1109.583380 C 57.719679 1224.051321 41.485623 1342.439284 26.773580 1460.366166 C 17.780557 1522.165895 15.843347 1584.749712 5.005443 1646.272736 C 6.019930 1652.314343 8.325891 1658.033222 10.170773 1663.798125 Z" transform="scale(0.240000,0.240000) translate(1020.833293,166.666660)" fill="#d8d8d8" opacity="1.000000"></path>
        <path d="M 4.038708 1601.966467 C 6.206177 1611.789883 11.971079 1620.275803 17.320785 1628.577207 C 22.578444 1495.707741 33.554841 1362.561572 60.396262 1232.136420 C 109.559228 1026.167961 173.480682 821.214130 181.920297 608.189436 C 191.789878 475.273806 194.972116 341.574229 184.964323 208.520388 C 176.662920 149.257020 168.960807 89.717229 153.880013 31.653006 C 151.205020 21.829589 148.299486 12.052337 145.716821 2.136873 C 139.214135 2.228920 132.757331 2.367413 126.300528 2.551788 C 118.967729 4.258177 111.680813 6.195387 104.440062 7.993823 C 108.175707 42.122159 114.632511 75.835298 118.967729 109.825142 C 129.344554 183.339192 138.614562 257.083782 144.194808 331.151240 C 145.855314 351.028613 148.080020 365.071183 149.910666 391.917354 C 156.950937 480.216509 155.309698 566.866512 142.765123 653.985789 C 122.564882 808.854213 103.609949 964.460420 64.731480 1115.962090 C 39.642612 1225.126208 27.420906 1336.642592 11.279178 1447.282559 C 9.665118 1498.936143 0.118406 1550.174531 4.038708 1601.966467 Z" transform="scale(0.240000,0.240000) translate(1008.333293,174.999993)" fill="#d8d8d8" opacity="1.000000"></path>
        <path d="M 1.771315 74.903168 C 3.201000 89.938079 7.720593 104.465606 14.684641 117.840152 C 35.438290 103.128109 59.697046 88.923451 70.212082 64.526343 C 75.146872 44.741299 76.023149 24.172025 77.914195 3.925760 C 59.650882 33.903253 36.084027 63.050494 1.771315 74.903168 Z" transform="scale(0.240000,0.240000) translate(949.999962,1383.333278)" fill="#d8d8d8" opacity="1.000000"></path>
        <path d="M 14.320657 278.787397 C 22.668225 274.867235 31.015793 270.670369 37.979840 264.444246 C 71.324229 235.389193 98.626729 199.646797 118.919017 160.399294 C 126.021558 146.471340 133.677225 132.866113 141.656041 119.399380 C 147.236287 81.904430 150.464689 44.132777 156.460131 6.683992 C 155.122775 6.268795 152.401617 5.392518 151.018097 4.931439 C 122.285912 96.754825 73.768401 184.150665 2.790852 250.055072 C 6.618826 259.647808 10.492965 269.194520 14.320657 278.787397 Z" transform="scale(0.240000,0.240000) translate(912.499964,1108.333289)" fill="#d8d8d8" opacity="1.000000"></path>
        <path d="M 47.763900 218.037434 C 51.868578 241.004997 54.266586 264.387195 61.369126 286.709022 C 67.871813 267.154517 62.522107 246.861947 60.861601 226.984574 C 55.281355 152.917116 46.011347 79.172526 35.634522 5.658476 L 36.095601 10.685595 C 25.350026 5.750804 14.096924 2.061042 2.336298 1.092718 C 1.690843 9.855201 1.321810 18.802341 3.950639 27.288402 C 23.182276 89.687562 36.187930 153.839556 47.763900 218.037434 Z" transform="scale(0.240000,0.240000) translate(1091.666623,279.166656)" fill="#d71b1a" opacity="1.000000"></path>
        <path d="M 92.708986 82.247523 C 133.709041 158.436567 151.142242 244.218206 171.203991 327.555673 C 183.932941 222.034872 183.056664 114.623307 169.635813 9.148670 C 113.785503 2.046130 56.136477 0.893150 1.300655 15.051784 C 7.757459 14.867409 14.214262 14.728916 20.716949 14.636869 C 23.299614 24.552333 26.205147 34.329585 28.880141 44.153002 C 28.695484 40.509685 28.326733 33.176604 28.095911 29.487123 C 54.752956 39.310540 79.565120 56.374708 92.708986 82.247523 Z" transform="scale(0.240000,0.240000) translate(1133.333288,162.499994)" fill="#d71b1a" opacity="1.000000"></path>
        <path d="M 124.673270 781.379666 C 126.794856 782.348130 131.083910 784.331223 133.205495 785.299828 C 129.285192 733.507892 138.831905 682.269504 140.445965 630.615920 C 134.957766 610.692383 140.215425 590.261602 141.967978 570.199712 C 152.944375 458.821821 167.195338 347.720634 174.989498 236.066038 C 167.010681 249.532772 159.355014 263.137999 152.252474 277.065953 C 131.960185 316.313455 104.657685 352.055852 71.313297 381.110905 C 64.349249 387.337028 56.001682 391.533894 47.654114 395.454056 C 43.826421 385.861179 39.952283 376.314467 36.124309 366.721731 C 107.101858 300.817324 155.619368 213.421484 184.351553 121.598097 C 185.735073 122.059177 188.456231 122.935454 189.793587 123.350650 C 192.376252 107.900542 189.563047 92.358387 186.565185 77.185265 C 181.722723 52.926509 179.093894 28.206674 172.406832 4.316952 C 162.168219 19.628567 158.017376 37.799551 149.669808 54.033326 C 119.876972 112.835333 85.425767 169.147003 50.605811 225.089641 C 52.819444 229.655399 54.710490 234.313486 56.739747 238.925408 C 43.780257 256.173952 31.835255 276.051325 11.127769 284.952301 C 10.528197 282.000744 9.282888 276.097489 8.637433 273.191956 C -6.351314 298.742044 11.911717 324.937727 20.720646 349.104154 C 51.804956 428.798163 79.015410 510.290889 97.508981 593.858895 C 107.148022 639.194028 114.803689 686.189526 106.317910 732.354911 C 109.131115 749.326751 118.770156 765.053422 124.673270 781.379666 Z M 72.604770 466.569816 C 106.917482 454.717143 130.484337 425.569902 148.747650 395.592408 C 146.856604 415.838673 145.980327 436.407947 141.045537 456.192992 C 130.530501 480.590099 106.271746 494.794757 85.518096 509.506800 C 78.554049 496.132254 74.034455 481.604728 72.604770 466.569816 Z" transform="scale(0.240000,0.240000) translate(879.166632,991.666627)" fill="#d71b1a" opacity="1.000000"></path>
        <path d="M 453.348147 1477.959651 L 410.365619 1078.356462 L 364.696684 547.790884 C 361.640211 474.517739 350.364234 440.667694 358.452884 334.717868 C 372.956671 245.470447 386.248024 174.808055 401.634793 95.131138 L 413.207835 35.202753 C 370.030463 16.329837 300.213217 -0.547960 242.455445 2.138448 C 184.697674 4.824856 141.773193 10.178322 106.849889 18.237546 C 71.926585 26.296770 14.792043 50.805406 5.389615 56.178222 C -4.012813 61.551038 30.910491 277.806881 40.312919 323.475817 C 48.673680 380.603086 157.308721 796.448106 175.949094 829.425131 C 180.006134 869.693823 362.681878 1377.890953 368.054694 1400.725421 L 433.041117 1701.977501 L 432.528485 1652.576170 L 464.765381 1576.013543 Z" transform="scale(0.240000,0.240000) translate(1933.333257,145.833328)" fill="#cd110a" opacity="1.000000"></path>
        <path d="M 69.039115 300.974062 C 75.172768 330.490476 83.335961 359.499365 92.513641 388.185526 C 56.863573 313.933552 18.446182 239.266522 4.472205 157.220528 C -0.001506 129.318174 8.254015 101.692806 13.788096 74.574681 C 23.427137 49.854846 29.929824 23.612998 44.273115 1.014748 C 54.788151 88.917973 62.444100 177.374605 63.965831 265.969449 C 64.473357 277.775959 66.410285 289.490421 69.039115 300.974062 Z" transform="scale(0.240000,0.240000) translate(2137.499915,749.999970)" fill="#cd110a" opacity="1.000000"></path>
        <path d="M 37.760962 258.943209 C 20.466254 302.341554 18.529325 349.521427 10.873377 395.087241 C 7.322388 364.325799 1.695697 333.656404 2.064730 302.525930 C 22.126478 219.188463 39.559679 133.406824 80.559734 57.217780 C 93.703600 31.344965 118.515763 14.280797 145.172808 4.457380 C 144.941987 8.146861 144.573236 15.479942 144.388579 19.123259 C 129.307785 77.187482 121.605672 136.727273 113.304269 195.990641 C 106.109682 206.690053 99.330291 217.666450 93.288684 229.058044 C 84.110723 227.397820 74.840996 223.569845 65.294283 224.768990 C 51.273860 231.133465 43.295325 245.292100 37.760962 258.943209 Z" transform="scale(0.240000,0.240000) translate(2091.666584,187.499993)" fill="#cd110a" opacity="1.000000"></path>
        <path d="M 346.431150 1663.768377 C 341.911557 1647.442133 339.467103 1630.654669 337.437846 1613.821182 C 319.682058 1492.942742 304.231950 1371.280214 273.931870 1252.707735 C 239.942026 1132.244352 195.575076 1015.101417 155.912659 896.482915 C 121.876651 794.789807 85.765222 693.512177 62.844104 588.544785 C 21.982541 402.822590 -4.766832 211.843019 8.607855 21.416856 C 11.098191 19.802514 13.450316 18.096125 15.710113 16.251244 C 35.218735 12.008354 54.727076 7.626972 74.466238 4.952260 C 61.045387 110.426896 60.169110 217.838461 72.898060 323.359262 C 72.529028 354.489737 78.155719 385.159131 81.706708 415.920573 C 93.513499 497.366994 105.488559 579.301955 126.288092 658.949659 C 146.877625 743.874351 154.339432 781.532126 185.705777 884.307373 C 210.195072 951.041892 243.262475 1028.614456 265.953053 1109.553633 C 298.882245 1224.021574 315.116300 1342.409536 329.828343 1460.336419 C 338.821366 1522.136147 340.758576 1584.719964 351.596481 1646.242989 C 350.581993 1652.284595 348.276032 1658.003474 346.431150 1663.768377 Z" transform="scale(0.240000,0.240000) translate(2020.833253,166.666660)" fill="#d8d8d8" opacity="1.000000"></path>
        <path d="M 190.063221 1601.936719 C 187.895753 1611.760136 182.130850 1620.246056 176.781144 1628.547459 C 171.523486 1495.677994 160.547088 1362.531825 133.705668 1232.106673 C 84.542702 1026.138213 20.621247 821.184383 12.181632 608.159688 C 2.312051 475.244059 -0.870186 341.544481 9.137606 208.490641 C 17.439010 149.227272 25.141122 89.687482 40.221916 31.623258 C 42.896910 21.799842 45.802443 12.022589 48.385108 2.107125 C 54.887795 2.199172 61.344598 2.337665 67.801402 2.522041 C 75.134201 4.228429 82.421116 6.165639 89.661868 7.964075 C 85.926222 42.092412 79.469419 75.805551 75.134201 109.795395 C 64.757376 183.309445 55.487367 257.054034 49.907122 331.121492 C 48.246616 350.998866 46.021910 365.041436 44.191263 391.887607 C 37.150993 480.186761 38.792232 566.836765 51.336806 653.956041 C 71.537048 808.824465 90.491980 964.430673 129.370450 1115.932343 C 154.459317 1225.096461 166.681024 1336.612845 182.822751 1447.252812 C 184.436811 1498.906396 193.983524 1550.144783 190.063221 1601.936719 Z" transform="scale(0.240000,0.240000) translate(2195.833246,174.999993)" fill="#d8d8d8" opacity="1.000000"></path>
        <path d="M 79.830619 74.873421 C 78.400934 89.908332 73.881340 104.435858 66.917293 117.810404 C 46.163643 103.098361 21.904888 88.893703 11.389852 64.496596 C 6.455061 44.711551 5.578785 24.142277 3.687739 3.896012 C 21.951052 33.873506 45.517907 63.020747 79.830619 74.873421 Z" transform="scale(0.240000,0.240000) translate(2366.666573,1383.333278)" fill="#d8d8d8" opacity="1.000000"></path>
        <path d="M 146.447940 278.757650 C 138.100372 274.837488 129.752804 270.640622 122.788757 264.414499 C 89.444369 235.359446 62.141868 199.617049 41.849580 160.369547 C 34.747040 146.441593 27.091373 132.836366 19.112556 119.369632 C 13.532311 81.874683 10.303909 44.103029 4.308466 6.654244 C 5.645822 6.239047 8.366980 5.362771 9.750501 4.901691 C 38.482685 96.725078 87.000196 184.120918 157.977745 250.025324 C 154.149771 259.618060 150.275633 269.164773 146.447940 278.757650 Z" transform="scale(0.240000,0.240000) translate(2324.999908,1108.333289)" fill="#d8d8d8" opacity="1.000000"></path>
        <path d="M 21.338034 218.007686 C 17.233356 240.975250 14.835348 264.357447 7.732808 286.679274 C 1.230121 267.124769 6.579827 246.832199 8.240333 226.954826 C 13.820579 152.887368 23.090588 79.142778 33.467412 5.628728 L 33.006333 10.655847 C 43.751909 5.721057 55.005010 2.031294 66.765637 1.062971 C 67.411092 9.825454 67.780124 18.772594 65.151295 27.258654 C 45.919658 89.657814 32.914004 153.809809 21.338034 218.007686 Z" transform="scale(0.240000,0.240000) translate(2237.499911,279.166656)" fill="#d71b1a" opacity="1.000000"></path>
        <path d="M 88.892944 82.217776 C 47.892889 158.406820 30.459688 244.188458 10.397939 327.525925 C -2.331011 222.005124 -1.454734 114.593559 11.966117 9.118923 C 67.816427 2.016383 125.465453 0.863402 180.301275 15.022037 C 173.844471 14.837661 167.387668 14.699169 160.884981 14.607122 C 158.302316 24.522585 155.396783 34.299838 152.721789 44.123254 C 152.906446 40.479937 153.275197 33.146857 153.506018 29.457376 C 126.848973 39.280792 102.036810 56.344960 88.892944 82.217776 Z" transform="scale(0.240000,0.240000) translate(2083.333251,162.499994)" fill="#d71b1a" opacity="1.000000"></path>
        <path d="M 69.428659 781.349918 C 67.307074 782.318383 63.018020 784.301475 60.896434 785.270080 C 64.816737 733.478144 55.270025 682.239757 53.655965 630.586173 C 59.144163 610.662635 53.886504 590.231854 52.133952 570.169965 C 41.157555 458.792074 26.906591 347.690886 19.112432 236.036291 C 27.091249 249.503025 34.746915 263.108251 41.849456 277.036206 C 62.141744 316.283708 89.444244 352.026104 122.788633 381.081158 C 129.752680 387.307281 138.100248 391.504147 146.447816 395.424309 C 150.275508 385.831432 154.149647 376.284719 157.977621 366.691983 C 87.000072 300.787576 38.482561 213.391737 9.750377 121.568350 C 8.366856 122.029430 5.645698 122.905706 4.308342 123.320903 C 1.725677 107.870795 4.538882 92.328640 7.536744 77.155517 C 12.379206 52.896762 15.008035 28.176927 21.695097 4.287204 C 31.933711 19.598819 36.084553 37.769804 44.432121 54.003578 C 74.224958 112.805585 108.676162 169.117256 143.496118 225.059894 C 141.282486 229.625652 139.391440 234.283738 137.362183 238.895660 C 150.321673 256.144204 162.266675 276.021577 182.974160 284.922553 C 183.573733 281.970996 184.819042 276.067742 185.464497 273.162208 C 200.453244 298.712296 182.190212 324.907980 173.381283 349.074407 C 142.296973 428.768416 115.086520 510.261141 96.592948 593.829148 C 86.953907 639.164280 79.298240 686.159778 87.784019 732.325164 C 84.970814 749.297003 75.331773 765.023675 69.428659 781.349918 Z M 121.497159 466.540069 C 87.184447 454.687395 63.617593 425.540154 45.354280 395.562661 C 47.245326 415.808926 48.121602 436.378200 53.056392 456.163244 C 63.571428 480.560352 87.830184 494.765010 108.583833 509.477053 C 115.547881 496.102507 120.067475 481.574980 121.497159 466.540069 Z" transform="scale(0.240000,0.240000) translate(2324.999908,991.666627)" fill="#d71b1a" opacity="1.000000"></path>
        <path d="M 143.421124 94.432991 C 131.581635 133.996396 90.528133 156.655643 51.725563 145.043835 C 13.818904 130.438207 -3.945201 93.439508 2.904587 52.382916 C 10.748243 26.172181 16.834939 9.564630 50.151262 23.078763 C 50.275516 11.196714 46.294605 0.738096 71.457589 6.237230 C 115.055860 21.518956 147.380207 52.511346 143.421124 94.432991 Z" transform="scale(0.240000,0.240000) translate(795.833302,1141.666621)" fill="#a77f6d" opacity="1.000000"></path>
        <path d="M 4.782701 102.686172 C 21.315889 140.529141 64.806515 158.061878 101.921734 141.846636 C 137.785863 122.767762 150.949265 83.893708 139.188800 43.965589 C 128.235572 18.894641 120.186783 3.144225 88.747473 20.584951 C 87.188422 8.804973 89.876452 -2.058030 65.562291 6.441254 C 24.129944 26.878989 -4.212762 61.550053 4.782701 102.686172 Z" transform="scale(0.240000,0.240000) translate(2458.333236,1137.499955)" fill="#a77f6d" opacity="1.000000"></path>
        <path d="M 4.725201 1050.318221 L 76.325947 1057.826116 C 115.742396 1022.163614 149.527924 969.608349 194.575295 950.838611 L 212.196228 871.572513 C 220.703352 853.215035 206.823307 847.394371 237.717601 816.500077 C 282.044195 792.321935 302.192648 776.203173 322.341100 743.965649 L 834.633340 29.999231 L 803.739047 3.134628 L 278.014505 725.160427 C 264.582203 739.935959 282.044195 746.652110 237.717601 769.487022 C 193.391006 792.321935 189.361315 785.605784 174.585784 827.245918 L 138.318570 927.988179 C 126.229498 955.300526 104.737816 973.658005 76.529983 996.492917 Q 53.845558 1013.020188 4.725201 1050.318221 Z" transform="scale(0.240000,0.240000) translate(237.499991,945.833296)" fill="#655644" opacity="1.000000"></path>
    </g>
</svg>